<svg width="110" height="135" viewBox="0 0 110 135" fill="none" xmlns="http://www.w3.org/2000/svg">
<path fill-rule="evenodd" clip-rule="evenodd" d="M66.308 66.7847H82.14C82.9955 66.7847 83.7806 67.2691 84.1634 68.0347C84.5463 68.8003 84.4642 69.7183 83.9525 70.4019L56.8075 106.593C56.3817 107.163 55.7098 107.499 54.9989 107.499C54.288 107.499 53.6161 107.163 53.1903 106.593L26.0453 70.4049C25.5336 69.7213 25.4476 68.8033 25.8344 68.0377C26.2172 67.2721 26.9985 66.7877 27.8578 66.7877H43.6898V14.7607C43.6898 13.5107 44.7015 12.499 45.9515 12.499H64.0455C65.2955 12.499 66.3072 13.5107 66.3072 14.7607L66.308 66.7847Z" fill="black"/>
</svg>
